<svg xmlns="http://www.w3.org/2000/svg" xmlns:xlink="http://www.w3.org/1999/xlink" viewBox="0 0 603.86 391.71"><defs><style>.cls-1{isolation:isolate;}.cls-15,.cls-17,.cls-2,.cls-40,.cls-42,.cls-44,.cls-45,.cls-47,.cls-48,.cls-5,.cls-50,.cls-51,.cls-52,.cls-56,.cls-58,.cls-59,.cls-60,.cls-61,.cls-63,.cls-64,.cls-65{opacity:0.5;}.cls-10,.cls-100,.cls-101,.cls-102,.cls-103,.cls-104,.cls-105,.cls-106,.cls-107,.cls-108,.cls-109,.cls-110,.cls-111,.cls-112,.cls-113,.cls-114,.cls-115,.cls-116,.cls-14,.cls-16,.cls-18,.cls-2,.cls-20,.cls-21,.cls-23,.cls-24,.cls-25,.cls-27,.cls-28,.cls-3,.cls-30,.cls-31,.cls-32,.cls-34,.cls-35,.cls-37,.cls-38,.cls-39,.cls-4,.cls-55,.cls-66,.cls-68,.cls-69,.cls-7,.cls-71,.cls-72,.cls-73,.cls-75,.cls-76,.cls-78,.cls-79,.cls-80,.cls-82,.cls-83,.cls-85,.cls-86,.cls-87,.cls-89,.cls-9,.cls-90,.cls-92,.cls-93,.cls-95,.cls-96,.cls-97,.cls-98,.cls-99{mix-blend-mode:lighten;}.cls-2{fill:url(#radial-gradient);}.cls-103,.cls-104,.cls-105,.cls-11,.cls-111,.cls-112,.cls-113,.cls-3,.cls-39,.cls-4,.cls-55,.cls-95,.cls-96,.cls-97{opacity:0.3;}.cls-3{fill:url(#radial-gradient-2);}.cls-4{fill:url(#radial-gradient-3);}.cls-5{fill:#171c30;}.cls-6{fill:#312a91;}.cls-10,.cls-14,.cls-18,.cls-20,.cls-21,.cls-23,.cls-25,.cls-27,.cls-28,.cls-30,.cls-32,.cls-34,.cls-35,.cls-37,.cls-66,.cls-68,.cls-69,.cls-7,.cls-71,.cls-73,.cls-75,.cls-76,.cls-78,.cls-80,.cls-82,.cls-83,.cls-85,.cls-87,.cls-89,.cls-9,.cls-90,.cls-92{opacity:0.7;}.cls-7{fill:url(#Áåçûìÿííûé_ãðàäèåíò_4);}.cls-8{fill:url(#Áåçûìÿííûé_ãðàäèåíò_59);}.cls-9{fill:url(#Áåçûìÿííûé_ãðàäèåíò_122);}.cls-10{fill:url(#Áåçûìÿííûé_ãðàäèåíò_4-2);}.cls-11,.cls-12,.cls-17{fill:#42e8e0;}.cls-13{fill:url(#Áåçûìÿííûé_ãðàäèåíò_59-2);}.cls-14{fill:url(#Áåçûìÿííûé_ãðàäèåíò_122-2);}.cls-15,.cls-43,.cls-53,.cls-54{fill:#5cfff3;}.cls-16{fill:url(#Áåçûìÿííûé_ãðàäèåíò_4-3);}.cls-18{fill:url(#Áåçûìÿííûé_ãðàäèåíò_4-4);}.cls-19{fill:url(#Áåçûìÿííûé_ãðàäèåíò_59-3);}.cls-20{fill:url(#Áåçûìÿííûé_ãðàäèåíò_122-3);}.cls-21{fill:url(#Áåçûìÿííûé_ãðàäèåíò_4-5);}.cls-22{fill:url(#Áåçûìÿííûé_ãðàäèåíò_59-4);}.cls-23{fill:url(#Áåçûìÿííûé_ãðàäèåíò_122-4);}.cls-24{fill:url(#Áåçûìÿííûé_ãðàäèåíò_4-6);}.cls-25{fill:url(#Áåçûìÿííûé_ãðàäèåíò_4-7);}.cls-26{fill:url(#Áåçûìÿííûé_ãðàäèåíò_59-5);}.cls-27{fill:url(#Áåçûìÿííûé_ãðàäèåíò_122-5);}.cls-28{fill:url(#Áåçûìÿííûé_ãðàäèåíò_4-8);}.cls-29{fill:url(#Áåçûìÿííûé_ãðàäèåíò_59-6);}.cls-30{fill:url(#Áåçûìÿííûé_ãðàäèåíò_122-6);}.cls-31{fill:url(#Áåçûìÿííûé_ãðàäèåíò_4-9);}.cls-32{fill:url(#Áåçûìÿííûé_ãðàäèåíò_4-10);}.cls-33{fill:url(#Áåçûìÿííûé_ãðàäèåíò_59-7);}.cls-34{fill:url(#Áåçûìÿííûé_ãðàäèåíò_122-7);}.cls-35{fill:url(#linear-gradient);}.cls-36{fill:url(#Áåçûìÿííûé_ãðàäèåíò_59-8);}.cls-37{fill:url(#Áåçûìÿííûé_ãðàäèåíò_122-8);}.cls-38{fill:url(#Áåçûìÿííûé_ãðàäèåíò_4-11);}.cls-39{fill:url(#radial-gradient-4);}.cls-40{fill:url(#Áåçûìÿííûé_ãðàäèåíò_107);}.cls-41{fill:url(#Áåçûìÿííûé_ãðàäèåíò_59-9);}.cls-42{fill:url(#Áåçûìÿííûé_ãðàäèåíò_107-2);}.cls-44{fill:url(#Áåçûìÿííûé_ãðàäèåíò_107-3);}.cls-45{fill:url(#Áåçûìÿííûé_ãðàäèåíò_107-4);}.cls-46{fill:#fccc6b;}.cls-47{fill:#0b0244;}.cls-48{fill:url(#Áåçûìÿííûé_ãðàäèåíò_107-5);}.cls-49{fill:url(#Áåçûìÿííûé_ãðàäèåíò_59-10);}.cls-50{fill:url(#Áåçûìÿííûé_ãðàäèåíò_107-6);}.cls-51{fill:url(#Áåçûìÿííûé_ãðàäèåíò_107-7);}.cls-52{fill:url(#Áåçûìÿííûé_ãðàäèåíò_107-8);}.cls-53{opacity:0.2;}.cls-54{opacity:0.6;}.cls-55{fill:url(#radial-gradient-5);}.cls-56{fill:url(#Áåçûìÿííûé_ãðàäèåíò_107-9);}.cls-57{fill:url(#Áåçûìÿííûé_ãðàäèåíò_59-11);}.cls-58{fill:url(#Áåçûìÿííûé_ãðàäèåíò_107-10);}.cls-59{fill:url(#Áåçûìÿííûé_ãðàäèåíò_107-11);}.cls-60{fill:url(#Áåçûìÿííûé_ãðàäèåíò_107-12);}.cls-61{fill:url(#Áåçûìÿííûé_ãðàäèåíò_107-13);}.cls-62{fill:url(#Áåçûìÿííûé_ãðàäèåíò_59-12);}.cls-63{fill:url(#Áåçûìÿííûé_ãðàäèåíò_107-14);}.cls-64{fill:url(#Áåçûìÿííûé_ãðàäèåíò_107-15);}.cls-65{fill:url(#Áåçûìÿííûé_ãðàäèåíò_107-16);}.cls-66{fill:url(#Áåçûìÿííûé_ãðàäèåíò_4-12);}.cls-67{fill:url(#Áåçûìÿííûé_ãðàäèåíò_59-13);}.cls-68{fill:url(#Áåçûìÿííûé_ãðàäèåíò_122-9);}.cls-69{fill:url(#Áåçûìÿííûé_ãðàäèåíò_4-13);}.cls-70{fill:url(#Áåçûìÿííûé_ãðàäèåíò_59-14);}.cls-71{fill:url(#Áåçûìÿííûé_ãðàäèåíò_122-10);}.cls-72{fill:url(#Áåçûìÿííûé_ãðàäèåíò_4-14);}.cls-73{fill:url(#Áåçûìÿííûé_ãðàäèåíò_4-15);}.cls-74{fill:url(#Áåçûìÿííûé_ãðàäèåíò_59-15);}.cls-75{fill:url(#Áåçûìÿííûé_ãðàäèåíò_122-11);}.cls-76{fill:url(#Áåçûìÿííûé_ãðàäèåíò_4-16);}.cls-77{fill:url(#Áåçûìÿííûé_ãðàäèåíò_59-16);}.cls-78{fill:url(#Áåçûìÿííûé_ãðàäèåíò_122-12);}.cls-79{fill:url(#Áåçûìÿííûé_ãðàäèåíò_4-17);}.cls-80{fill:url(#Áåçûìÿííûé_ãðàäèåíò_4-18);}.cls-81{fill:url(#Áåçûìÿííûé_ãðàäèåíò_59-17);}.cls-82{fill:url(#Áåçûìÿííûé_ãðàäèåíò_122-13);}.cls-83{fill:url(#Áåçûìÿííûé_ãðàäèåíò_4-19);}.cls-84{fill:url(#Áåçûìÿííûé_ãðàäèåíò_59-18);}.cls-85{fill:url(#Áåçûìÿííûé_ãðàäèåíò_122-14);}.cls-86{fill:url(#Áåçûìÿííûé_ãðàäèåíò_4-20);}.cls-87{fill:url(#Áåçûìÿííûé_ãðàäèåíò_4-21);}.cls-88{fill:url(#Áåçûìÿííûé_ãðàäèåíò_59-19);}.cls-89{fill:url(#Áåçûìÿííûé_ãðàäèåíò_122-15);}.cls-90{fill:url(#Áåçûìÿííûé_ãðàäèåíò_4-22);}.cls-91{fill:url(#Áåçûìÿííûé_ãðàäèåíò_59-20);}.cls-92{fill:url(#Áåçûìÿííûé_ãðàäèåíò_122-16);}.cls-93{fill:url(#Áåçûìÿííûé_ãðàäèåíò_4-23);}.cls-94{fill:#6ee8fc;}.cls-95{fill:url(#radial-gradient-6);}.cls-96{fill:url(#radial-gradient-7);}.cls-97{fill:url(#radial-gradient-8);}.cls-98{fill:url(#Áåçûìÿííûé_ãðàäèåíò_26);}.cls-99{fill:url(#Áåçûìÿííûé_ãðàäèåíò_26-2);}.cls-100{fill:url(#Áåçûìÿííûé_ãðàäèåíò_26-3);}.cls-101{fill:url(#Áåçûìÿííûé_ãðàäèåíò_26-4);}.cls-102{fill:url(#Áåçûìÿííûé_ãðàäèåíò_26-5);}.cls-103{fill:url(#radial-gradient-9);}.cls-104{fill:url(#radial-gradient-10);}.cls-105{fill:url(#radial-gradient-11);}.cls-106{fill:url(#Áåçûìÿííûé_ãðàäèåíò_26-6);}.cls-107{fill:url(#Áåçûìÿííûé_ãðàäèåíò_26-7);}.cls-108{fill:url(#Áåçûìÿííûé_ãðàäèåíò_26-8);}.cls-109{fill:url(#Áåçûìÿííûé_ãðàäèåíò_26-9);}.cls-110{fill:url(#Áåçûìÿííûé_ãðàäèåíò_26-10);}.cls-111{fill:url(#radial-gradient-12);}.cls-112{fill:url(#Áåçûìÿííûé_ãðàäèåíò_26-11);}.cls-113{fill:url(#radial-gradient-13);}.cls-114{fill:url(#Áåçûìÿííûé_ãðàäèåíò_26-12);}.cls-115{fill:url(#Áåçûìÿííûé_ãðàäèåíò_26-13);}.cls-116{fill:url(#Áåçûìÿííûé_ãðàäèåíò_26-14);}</style><radialGradient id="radial-gradient" cx="319.4" cy="4246.3" r="323.87" gradientTransform="translate(-17.48 -2655.36) scale(1 0.67)" gradientUnits="userSpaceOnUse"><stop offset="0" stop-color="#42e8e0"/><stop offset="0.04" stop-color="#3ed7d1"/><stop offset="0.2" stop-color="#329ea1"/><stop offset="0.34" stop-color="#297078"/><stop offset="0.48" stop-color="#214b59"/><stop offset="0.61" stop-color="#1b3142"/><stop offset="0.73" stop-color="#182235"/><stop offset="0.82" stop-color="#171c30"/></radialGradient><radialGradient id="radial-gradient-2" cx="-1113.09" cy="434.74" r="108.02" gradientTransform="matrix(0.87, 0.5, -0.87, 0.5, 1582.22, 522.87)" gradientUnits="userSpaceOnUse"><stop offset="0" stop-color="#42e8e0"/><stop offset="0" stop-color="#42e6de"/><stop offset="0.08" stop-color="#38b7b6"/><stop offset="0.16" stop-color="#2f8e92"/><stop offset="0.25" stop-color="#286b74"/><stop offset="0.34" stop-color="#224e5b"/><stop offset="0.43" stop-color="#1d3848"/><stop offset="0.54" stop-color="#1a283a"/><stop offset="0.66" stop-color="#181f32"/><stop offset="0.82" stop-color="#171c30"/></radialGradient><radialGradient id="radial-gradient-3" cx="-902.74" cy="439.83" r="108.02" xlink:href="#radial-gradient-2"/><linearGradient id="Áåçûìÿííûé_ãðàäèåíò_4" x1="-1055.22" y1="239.2" x2="-1162.57" y2="180.33" gradientTransform="translate(1410.38 -38.19)" gradientUnits="userSpaceOnUse"><stop offset="0" stop-color="#180d5b"/><stop offset="0.09" stop-color="#1a1660"/><stop offset="0.25" stop-color="#1e2d6e"/><stop offset="0.44" stop-color="#255385"/><stop offset="0.66" stop-color="#2f87a5"/><stop offset="0.9" stop-color="#3ccace"/><stop offset="1" stop-color="#42e8e0"/></linearGradient><linearGradient id="Áåçûìÿííûé_ãðàäèåíò_59" x1="-1141.71" y1="220.7" x2="-1067.05" y2="220.7" gradientTransform="translate(1410.38 -38.19)" gradientUnits="userSpaceOnUse"><stop offset="0" stop-color="#2b237c"/><stop offset="1" stop-color="#180d5b"/></linearGradient><linearGradient id="Áåçûìÿííûé_ãðàäèåíò_122" x1="-1118.89" y1="238.65" x2="-1186.88" y2="199.99" gradientTransform="translate(1410.38 -38.19)" gradientUnits="userSpaceOnUse"><stop offset="0" stop-color="#180d5b"/><stop offset="0.1" stop-color="#1a1560"/><stop offset="0.25" stop-color="#1e2d6e"/><stop offset="0.28" stop-color="#1f3372"/><stop offset="0.38" stop-color="#22447c"/><stop offset="0.57" stop-color="#2b7097"/><stop offset="0.83" stop-color="#39b7c2"/><stop offset="1" stop-color="#42e8e0"/></linearGradient><linearGradient id="Áåçûìÿííûé_ãðàäèåíò_4-2" x1="-1089.53" y1="205.68" x2="-1177.12" y2="148.79" xlink:href="#Áåçûìÿííûé_ãðàäèåíò_4"/><linearGradient id="Áåçûìÿííûé_ãðàäèåíò_59-2" x1="-1141.71" y1="202.48" x2="-1067.05" y2="202.48" xlink:href="#Áåçûìÿííûé_ãðàäèåíò_59"/><linearGradient id="Áåçûìÿííûé_ãðàäèåíò_122-2" x1="-1127.58" y1="215.38" x2="-1188.78" y2="180.88" xlink:href="#Áåçûìÿííûé_ãðàäèåíò_122"/><linearGradient id="Áåçûìÿííûé_ãðàäèåíò_4-3" x1="-1106.94" y1="187" x2="-1177.36" y2="171.09" xlink:href="#Áåçûìÿííûé_ãðàäèåíò_4"/><linearGradient id="Áåçûìÿííûé_ãðàäèåíò_4-4" x1="-1055.22" y1="204.87" x2="-1162.57" y2="146" xlink:href="#Áåçûìÿííûé_ãðàäèåíò_4"/><linearGradient id="Áåçûìÿííûé_ãðàäèåíò_59-3" x1="-1141.71" y1="186.37" x2="-1067.05" y2="186.37" xlink:href="#Áåçûìÿííûé_ãðàäèåíò_59"/><linearGradient id="Áåçûìÿííûé_ãðàäèåíò_122-3" x1="-1118.89" y1="204.32" x2="-1186.88" y2="165.67" xlink:href="#Áåçûìÿííûé_ãðàäèåíò_122"/><linearGradient id="Áåçûìÿííûé_ãðàäèåíò_4-5" x1="-1089.53" y1="171.36" x2="-1177.12" y2="114.47" xlink:href="#Áåçûìÿííûé_ãðàäèåíò_4"/><linearGradient id="Áåçûìÿííûé_ãðàäèåíò_59-4" x1="-1141.71" y1="168.15" x2="-1067.05" y2="168.15" xlink:href="#Áåçûìÿííûé_ãðàäèåíò_59"/><linearGradient id="Áåçûìÿííûé_ãðàäèåíò_122-4" x1="-1127.58" y1="181.05" x2="-1188.78" y2="146.55" xlink:href="#Áåçûìÿííûé_ãðàäèåíò_122"/><linearGradient id="Áåçûìÿííûé_ãðàäèåíò_4-6" x1="-1106.94" y1="152.67" x2="-1177.36" y2="136.77" xlink:href="#Áåçûìÿííûé_ãðàäèåíò_4"/><linearGradient id="Áåçûìÿííûé_ãðàäèåíò_4-7" x1="-1055.22" y1="170.55" x2="-1162.57" y2="111.68" xlink:href="#Áåçûìÿííûé_ãðàäèåíò_4"/><linearGradient id="Áåçûìÿííûé_ãðàäèåíò_59-5" x1="-1141.71" y1="152.05" x2="-1067.05" y2="152.05" xlink:href="#Áåçûìÿííûé_ãðàäèåíò_59"/><linearGradient id="Áåçûìÿííûé_ãðàäèåíò_122-5" x1="-1118.89" y1="170" x2="-1186.88" y2="131.34" xlink:href="#Áåçûìÿííûé_ãðàäèåíò_122"/><linearGradient id="Áåçûìÿííûé_ãðàäèåíò_4-8" x1="-1089.53" y1="137.03" x2="-1177.12" y2="80.14" xlink:href="#Áåçûìÿííûé_ãðàäèåíò_4"/><linearGradient id="Áåçûìÿííûé_ãðàäèåíò_59-6" x1="-1141.71" y1="133.83" x2="-1067.05" y2="133.83" xlink:href="#Áåçûìÿííûé_ãðàäèåíò_59"/><linearGradient id="Áåçûìÿííûé_ãðàäèåíò_122-6" x1="-1127.58" y1="146.73" x2="-1188.78" y2="112.23" xlink:href="#Áåçûìÿííûé_ãðàäèåíò_122"/><linearGradient id="Áåçûìÿííûé_ãðàäèåíò_4-9" x1="-1106.94" y1="118.35" x2="-1177.36" y2="102.44" xlink:href="#Áåçûìÿííûé_ãðàäèåíò_4"/><linearGradient id="Áåçûìÿííûé_ãðàäèåíò_4-10" x1="-1055.22" y1="136.22" x2="-1162.57" y2="77.35" xlink:href="#Áåçûìÿííûé_ãðàäèåíò_4"/><linearGradient id="Áåçûìÿííûé_ãðàäèåíò_59-7" x1="-1141.71" y1="117.72" x2="-1067.05" y2="117.72" xlink:href="#Áåçûìÿííûé_ãðàäèåíò_59"/><linearGradient id="Áåçûìÿííûé_ãðàäèåíò_122-7" x1="-1118.89" y1="135.67" x2="-1186.88" y2="97.02" xlink:href="#Áåçûìÿííûé_ãðàäèåíò_122"/><linearGradient id="linear-gradient" x1="-1089.53" y1="102.71" x2="-1177.12" y2="45.82" xlink:href="#Áåçûìÿííûé_ãðàäèåíò_4"/><linearGradient id="Áåçûìÿííûé_ãðàäèåíò_59-8" x1="-1141.71" y1="99.5" x2="-1067.05" y2="99.5" xlink:href="#Áåçûìÿííûé_ãðàäèåíò_59"/><linearGradient id="Áåçûìÿííûé_ãðàäèåíò_122-8" x1="-1127.58" y1="112.4" x2="-1188.78" y2="77.9" xlink:href="#Áåçûìÿííûé_ãðàäèåíò_122"/><linearGradient id="Áåçûìÿííûé_ãðàäèåíò_4-11" x1="-1106.94" y1="84.02" x2="-1177.36" y2="68.12" xlink:href="#Áåçûìÿííûé_ãðàäèåíò_4"/><radialGradient id="radial-gradient-4" cx="-989.61" cy="564.94" r="108.02" xlink:href="#radial-gradient-2"/><linearGradient id="Áåçûìÿííûé_ãðàäèåíò_107" x1="219.55" y1="327.31" x2="322.3" y2="327.31" gradientUnits="userSpaceOnUse"><stop offset="0" stop-color="#42e8e0"/><stop offset="0.1" stop-color="#3ccace"/><stop offset="0.34" stop-color="#2f87a5"/><stop offset="0.56" stop-color="#255385"/><stop offset="0.75" stop-color="#1e2d6e"/><stop offset="0.91" stop-color="#1a1660"/><stop offset="1" stop-color="#180d5b"/></linearGradient><linearGradient id="Áåçûìÿííûé_ãðàäèåíò_59-9" x1="293.63" y1="327.3" x2="345.01" y2="327.3" gradientTransform="matrix(1, 0, 0, 1, 0, 0)" xlink:href="#Áåçûìÿííûé_ãðàäèåíò_59"/><linearGradient id="Áåçûìÿííûé_ãðàäèåíò_107-2" x1="242.26" y1="315.96" x2="345.01" y2="315.96" xlink:href="#Áåçûìÿííûé_ãðàäèåíò_107"/><linearGradient id="Áåçûìÿííûé_ãðàäèåíò_107-3" x1="242.26" y1="315.96" x2="294.7" y2="315.96" xlink:href="#Áåçûìÿííûé_ãðàäèåíò_107"/><linearGradient id="Áåçûìÿííûé_ãðàäèåíò_107-4" x1="256.24" y1="345.85" x2="342.24" y2="289.64" xlink:href="#Áåçûìÿííûé_ãðàäèåíò_107"/><linearGradient id="Áåçûìÿííûé_ãðàäèåíò_107-5" x1="219.55" y1="296.25" x2="322.3" y2="296.25" xlink:href="#Áåçûìÿííûé_ãðàäèåíò_107"/><linearGradient id="Áåçûìÿííûé_ãðàäèåíò_59-10" x1="293.63" y1="296.25" x2="345.01" y2="296.25" gradientTransform="matrix(1, 0, 0, 1, 0, 0)" xlink:href="#Áåçûìÿííûé_ãðàäèåíò_59"/><linearGradient id="Áåçûìÿííûé_ãðàäèåíò_107-6" x1="242.26" y1="284.9" x2="345.01" y2="284.9" xlink:href="#Áåçûìÿííûé_ãðàäèåíò_107"/><linearGradient id="Áåçûìÿííûé_ãðàäèåíò_107-7" x1="242.26" y1="284.9" x2="294.7" y2="284.9" xlink:href="#Áåçûìÿííûé_ãðàäèåíò_107"/><linearGradient id="Áåçûìÿííûé_ãðàäèåíò_107-8" x1="256.24" y1="314.8" x2="342.24" y2="258.59" xlink:href="#Áåçûìÿííûé_ãðàäèåíò_107"/><radialGradient id="radial-gradient-5" cx="-1208.53" cy="465.41" r="108.02" xlink:href="#radial-gradient-2"/><linearGradient id="Áåçûìÿííûé_ãðàäèåíò_107-9" x1="116.16" y1="168.09" x2="218.9" y2="168.09" xlink:href="#Áåçûìÿííûé_ãðàäèåíò_107"/><linearGradient id="Áåçûìÿííûé_ãðàäèåíò_59-11" x1="190.24" y1="168.08" x2="241.61" y2="168.08" gradientTransform="matrix(1, 0, 0, 1, 0, 0)" xlink:href="#Áåçûìÿííûé_ãðàäèåíò_59"/><linearGradient id="Áåçûìÿííûé_ãðàäèåíò_107-10" x1="138.87" y1="156.74" x2="241.62" y2="156.74" xlink:href="#Áåçûìÿííûé_ãðàäèåíò_107"/><linearGradient id="Áåçûìÿííûé_ãðàäèåíò_107-11" x1="138.87" y1="156.74" x2="191.31" y2="156.74" xlink:href="#Áåçûìÿííûé_ãðàäèåíò_107"/><linearGradient id="Áåçûìÿííûé_ãðàäèåíò_107-12" x1="152.84" y1="186.64" x2="238.84" y2="130.42" xlink:href="#Áåçûìÿííûé_ãðàäèåíò_107"/><linearGradient id="Áåçûìÿííûé_ãðàäèåíò_107-13" x1="116.16" y1="137.03" x2="218.9" y2="137.03" xlink:href="#Áåçûìÿííûé_ãðàäèåíò_107"/><linearGradient id="Áåçûìÿííûé_ãðàäèåíò_59-12" x1="190.24" y1="137.03" x2="241.61" y2="137.03" gradientTransform="matrix(1, 0, 0, 1, 0, 0)" xlink:href="#Áåçûìÿííûé_ãðàäèåíò_59"/><linearGradient id="Áåçûìÿííûé_ãðàäèåíò_107-14" x1="138.87" y1="125.68" x2="241.62" y2="125.68" xlink:href="#Áåçûìÿííûé_ãðàäèåíò_107"/><linearGradient id="Áåçûìÿííûé_ãðàäèåíò_107-15" x1="138.87" y1="125.68" x2="191.31" y2="125.68" xlink:href="#Áåçûìÿííûé_ãðàäèåíò_107"/><linearGradient id="Áåçûìÿííûé_ãðàäèåíò_107-16" x1="152.84" y1="155.58" x2="238.84" y2="99.37" xlink:href="#Áåçûìÿííûé_ãðàäèåíò_107"/><linearGradient id="Áåçûìÿííûé_ãðàäèåíò_4-12" x1="-877.47" y1="342.5" x2="-984.82" y2="283.63" xlink:href="#Áåçûìÿííûé_ãðàäèåíò_4"/><linearGradient id="Áåçûìÿííûé_ãðàäèåíò_59-13" x1="-963.96" y1="324" x2="-889.3" y2="324" xlink:href="#Áåçûìÿííûé_ãðàäèåíò_59"/><linearGradient id="Áåçûìÿííûé_ãðàäèåíò_122-9" x1="-941.14" y1="341.95" x2="-1009.13" y2="303.3" xlink:href="#Áåçûìÿííûé_ãðàäèåíò_122"/><linearGradient id="Áåçûìÿííûé_ãðàäèåíò_4-13" x1="-911.78" y1="308.98" x2="-999.37" y2="252.09" xlink:href="#Áåçûìÿííûé_ãðàäèåíò_4"/><linearGradient id="Áåçûìÿííûé_ãðàäèåíò_59-14" x1="-963.96" y1="305.78" x2="-889.3" y2="305.78" xlink:href="#Áåçûìÿííûé_ãðàäèåíò_59"/><linearGradient id="Áåçûìÿííûé_ãðàäèåíò_122-10" x1="-949.84" y1="318.68" x2="-1011.03" y2="284.18" xlink:href="#Áåçûìÿííûé_ãðàäèåíò_122"/><linearGradient id="Áåçûìÿííûé_ãðàäèåíò_4-14" x1="-929.19" y1="290.3" x2="-999.62" y2="274.4" xlink:href="#Áåçûìÿííûé_ãðàäèåíò_4"/><linearGradient id="Áåçûìÿííûé_ãðàäèåíò_4-15" x1="-877.47" y1="308.18" x2="-984.82" y2="249.3" xlink:href="#Áåçûìÿííûé_ãðàäèåíò_4"/><linearGradient id="Áåçûìÿííûé_ãðàäèåíò_59-15" x1="-963.96" y1="289.68" x2="-889.3" y2="289.68" xlink:href="#Áåçûìÿííûé_ãðàäèåíò_59"/><linearGradient id="Áåçûìÿííûé_ãðàäèåíò_122-11" x1="-941.14" y1="307.63" x2="-1009.13" y2="268.97" xlink:href="#Áåçûìÿííûé_ãðàäèåíò_122"/><linearGradient id="Áåçûìÿííûé_ãðàäèåíò_4-16" x1="-911.78" y1="274.66" x2="-999.37" y2="217.77" xlink:href="#Áåçûìÿííûé_ãðàäèåíò_4"/><linearGradient id="Áåçûìÿííûé_ãðàäèåíò_59-16" x1="-963.96" y1="271.46" x2="-889.3" y2="271.46" xlink:href="#Áåçûìÿííûé_ãðàäèåíò_59"/><linearGradient id="Áåçûìÿííûé_ãðàäèåíò_122-12" x1="-949.84" y1="284.35" x2="-1011.03" y2="249.85" xlink:href="#Áåçûìÿííûé_ãðàäèåíò_122"/><linearGradient id="Áåçûìÿííûé_ãðàäèåíò_4-17" x1="-929.19" y1="255.97" x2="-999.62" y2="240.07" xlink:href="#Áåçûìÿííûé_ãðàäèåíò_4"/><linearGradient id="Áåçûìÿííûé_ãðàäèåíò_4-18" x1="-877.47" y1="273.85" x2="-984.82" y2="214.98" xlink:href="#Áåçûìÿííûé_ãðàäèåíò_4"/><linearGradient id="Áåçûìÿííûé_ãðàäèåíò_59-17" x1="-963.96" y1="255.35" x2="-889.3" y2="255.35" xlink:href="#Áåçûìÿííûé_ãðàäèåíò_59"/><linearGradient id="Áåçûìÿííûé_ãðàäèåíò_122-13" x1="-941.14" y1="273.3" x2="-1009.13" y2="234.65" xlink:href="#Áåçûìÿííûé_ãðàäèåíò_122"/><linearGradient id="Áåçûìÿííûé_ãðàäèåíò_4-19" x1="-911.78" y1="240.33" x2="-999.37" y2="183.44" xlink:href="#Áåçûìÿííûé_ãðàäèåíò_4"/><linearGradient id="Áåçûìÿííûé_ãðàäèåíò_59-18" x1="-963.96" y1="237.13" x2="-889.3" y2="237.13" xlink:href="#Áåçûìÿííûé_ãðàäèåíò_59"/><linearGradient id="Áåçûìÿííûé_ãðàäèåíò_122-14" x1="-949.84" y1="250.03" x2="-1011.03" y2="215.53" xlink:href="#Áåçûìÿííûé_ãðàäèåíò_122"/><linearGradient id="Áåçûìÿííûé_ãðàäèåíò_4-20" x1="-929.19" y1="221.65" x2="-999.62" y2="205.75" xlink:href="#Áåçûìÿííûé_ãðàäèåíò_4"/><linearGradient id="Áåçûìÿííûé_ãðàäèåíò_4-21" x1="-877.47" y1="239.53" x2="-984.82" y2="180.65" xlink:href="#Áåçûìÿííûé_ãðàäèåíò_4"/><linearGradient id="Áåçûìÿííûé_ãðàäèåíò_59-19" x1="-963.96" y1="221.03" x2="-889.3" y2="221.03" xlink:href="#Áåçûìÿííûé_ãðàäèåíò_59"/><linearGradient id="Áåçûìÿííûé_ãðàäèåíò_122-15" x1="-941.14" y1="238.98" x2="-1009.13" y2="200.32" xlink:href="#Áåçûìÿííûé_ãðàäèåíò_122"/><linearGradient id="Áåçûìÿííûé_ãðàäèåíò_4-22" x1="-911.78" y1="206.01" x2="-999.37" y2="149.12" xlink:href="#Áåçûìÿííûé_ãðàäèåíò_4"/><linearGradient id="Áåçûìÿííûé_ãðàäèåíò_59-20" x1="-963.96" y1="202.81" x2="-889.3" y2="202.81" xlink:href="#Áåçûìÿííûé_ãðàäèåíò_59"/><linearGradient id="Áåçûìÿííûé_ãðàäèåíò_122-16" x1="-949.84" y1="215.7" x2="-1011.03" y2="181.2" xlink:href="#Áåçûìÿííûé_ãðàäèåíò_122"/><linearGradient id="Áåçûìÿííûé_ãðàäèåíò_4-23" x1="-929.19" y1="187.32" x2="-999.62" y2="171.42" xlink:href="#Áåçûìÿííûé_ãðàäèåíò_4"/><radialGradient id="radial-gradient-6" cx="-1079.85" cy="229.55" r="39.97" xlink:href="#radial-gradient-2"/><radialGradient id="radial-gradient-7" cx="-997.91" cy="250.44" r="39.97" xlink:href="#radial-gradient-2"/><radialGradient id="radial-gradient-8" cx="-1079.95" cy="280.99" r="30.73" xlink:href="#radial-gradient-2"/><radialGradient id="Áåçûìÿííûé_ãðàäèåíò_26" cx="466.18" cy="136.93" r="7.02" gradientUnits="userSpaceOnUse"><stop offset="0" stop-color="#42e8e0"/><stop offset="0.02" stop-color="#3fd8d7"/><stop offset="0.1" stop-color="#36a9ba"/><stop offset="0.18" stop-color="#2e7fa0"/><stop offset="0.26" stop-color="#275c8b"/><stop offset="0.35" stop-color="#223f79"/><stop offset="0.44" stop-color="#1d296c"/><stop offset="0.54" stop-color="#1a1962"/><stop offset="0.66" stop-color="#19105d"/><stop offset="0.82" stop-color="#180d5b"/></radialGradient><radialGradient id="Áåçûìÿííûé_ãðàäèåíò_26-2" cx="403.64" cy="124.81" r="7.02" xlink:href="#Áåçûìÿííûé_ãðàäèåíò_26"/><radialGradient id="Áåçûìÿííûé_ãðàäèåíò_26-3" cx="496.73" cy="151.82" r="7.02" xlink:href="#Áåçûìÿííûé_ãðàäèåíò_26"/><radialGradient id="Áåçûìÿííûé_ãðàäèåíò_26-4" cx="509.74" cy="144.15" r="7.02" xlink:href="#Áåçûìÿííûé_ãðàäèåíò_26"/><radialGradient id="Áåçûìÿííûé_ãðàäèåíò_26-5" cx="540.22" cy="174.79" r="7.02" xlink:href="#Áåçûìÿííûé_ãðàäèåíò_26"/><radialGradient id="radial-gradient-9" cx="-1094.79" cy="214.62" r="39.97" xlink:href="#radial-gradient-2"/><radialGradient id="radial-gradient-10" cx="-1012.84" cy="235.51" r="39.97" xlink:href="#radial-gradient-2"/><radialGradient id="radial-gradient-11" cx="-1094.88" cy="266.06" r="30.73" xlink:href="#radial-gradient-2"/><radialGradient id="Áåçûìÿííûé_ãðàäèåíò_26-6" cx="466.18" cy="122" r="7.02" xlink:href="#Áåçûìÿííûé_ãðàäèåíò_26"/><radialGradient id="Áåçûìÿííûé_ãðàäèåíò_26-7" cx="403.64" cy="109.87" r="7.02" xlink:href="#Áåçûìÿííûé_ãðàäèåíò_26"/><radialGradient id="Áåçûìÿííûé_ãðàäèåíò_26-8" cx="496.73" cy="136.88" r="7.02" xlink:href="#Áåçûìÿííûé_ãðàäèåíò_26"/><radialGradient id="Áåçûìÿííûé_ãðàäèåíò_26-9" cx="509.74" cy="129.22" r="7.02" xlink:href="#Áåçûìÿííûé_ãðàäèåíò_26"/><radialGradient id="Áåçûìÿííûé_ãðàäèåíò_26-10" cx="540.22" cy="159.86" r="7.02" xlink:href="#Áåçûìÿííûé_ãðàäèåíò_26"/><radialGradient id="radial-gradient-12" cx="-1302.77" cy="341.42" r="39.97" xlink:href="#radial-gradient-2"/><radialGradient id="Áåçûìÿííûé_ãðàäèåíò_26-11" cx="-1220.82" cy="362.31" r="39.97" gradientTransform="matrix(0.87, 0.5, -0.87, 0.5, 1582.22, 522.87)" xlink:href="#Áåçûìÿííûé_ãðàäèåíò_26"/><radialGradient id="radial-gradient-13" cx="-1302.87" cy="392.86" r="30.73" xlink:href="#radial-gradient-2"/><radialGradient id="Áåçûìÿííûé_ãðàäèåíò_26-12" cx="158.78" cy="43.21" r="7.02" xlink:href="#Áåçûìÿííûé_ãðàäèåíò_26"/><radialGradient id="Áåçûìÿííûé_ãðàäèåíò_26-13" cx="113.72" cy="69.28" r="7.02" xlink:href="#Áåçûìÿííûé_ãðàäèåíò_26"/><radialGradient id="Áåçûìÿííûé_ãðàäèåíò_26-14" cx="224.29" cy="134.48" r="7.02" xlink:href="#Áåçûìÿííûé_ãðàäèåíò_26"/></defs><title>111</title><g class="cls-1"><g id="Ñëîé_1" data-name="Ñëîé 1"><polygon class="cls-2" points="603.86 167.86 583.5 156.11 376.51 275.54 306.29 235 559.94 88.55 539.59 76.8 285.93 223.24 218.17 184.12 262.14 158.73 278.71 149.16 278.71 149.16 471.82 37.67 451.47 25.92 258.36 137.41 20.35 0 0 11.75 238 149.16 33.29 268.07 53.65 279.83 197.81 195.87 267.23 235.95 285.93 246.75 285.93 246.75 535.78 391.71 556.13 379.96 396.86 287.29 603.86 167.86"/><ellipse class="cls-3" cx="241.8" cy="183.7" rx="132.29" ry="76.38"/><ellipse class="cls-4" cx="419.55" cy="291.42" rx="132.29" ry="76.38"/><polygon class="cls-5" points="286.03 214.05 234.23 184.14 286.03 154.23 337.84 184.14 286.03 214.05"/><polygon class="cls-6" points="286.03 201.92 233.81 171.77 286.03 141.62 338.25 171.77 286.03 201.92"/><polygon class="cls-6" points="286.03 193.25 233.81 163.09 286.03 132.94 338.25 163.1 286.03 193.25"/><polygon class="cls-7" points="286.03 186.38 245.71 163.09 286.03 139.82 326.35 163.1 286.03 186.38"/><polygon class="cls-8" points="338.25 163.1 338.25 171.77 286.03 201.92 286.03 193.25 338.25 163.1"/><polygon class="cls-6" points="233.81 163.09 233.81 171.77 286.03 201.92 286.03 193.25 233.81 163.09"/><polygon class="cls-9" points="233.81 163.09 233.81 171.77 286.03 201.92 286.03 193.25 233.81 163.09"/><polygon class="cls-6" points="286.03 183.7 233.81 153.55 286.03 123.4 338.25 153.55 286.03 183.7"/><polygon class="cls-6" points="286.03 175.03 233.81 144.88 286.03 114.72 338.25 144.88 286.03 175.03"/><polygon class="cls-10" points="286.03 175.03 233.81 144.88 286.03 114.72 338.25 144.88 286.03 175.03"/><polygon class="cls-11" points="286.03 156.04 266.69 144.88 286.03 133.71 305.37 144.88 286.03 156.04"/><polygon class="cls-11" points="286.03 141.29 298.81 148.66 305.37 144.88 286.03 133.71 266.69 144.88 273.26 148.66 286.03 141.29"/><polygon class="cls-12" points="286.03 141.29 298.81 148.66 305.37 144.88 286.03 133.71 266.69 144.88 273.26 148.66 286.03 141.29"/><polygon class="cls-13" points="338.25 144.88 338.25 153.55 286.03 183.7 286.03 175.03 338.25 144.88"/><polygon class="cls-6" points="233.81 144.88 233.81 153.55 286.03 183.7 286.03 175.03 233.81 144.88"/><polygon class="cls-14" points="233.81 144.88 233.81 153.55 286.03 183.7 286.03 175.03 233.81 144.88"/><polygon class="cls-11" points="286.03 183.7 286.03 193.25 233.81 163.09 233.81 153.55 286.03 183.7"/><polygon class="cls-11" points="245.71 160.42 245.71 163.09 286.03 186.38 326.35 163.1 326.35 160.42 286.03 183.7 245.71 160.42"/><polygon class="cls-11" points="286.03 183.7 286.03 186.38 245.71 163.09 245.71 160.42 286.03 183.7"/><polygon class="cls-15" points="233.81 153.55 233.81 163.09 286.03 193.25 338.25 163.1 338.25 153.55 286.03 183.7 233.81 153.55"/><polygon class="cls-16" points="235.04 144.88 286.65 115.08 286.03 114.72 233.81 144.88 286.03 175.03 286.65 174.67 235.04 144.88"/><polygon class="cls-17" points="233.81 153.55 233.81 163.09 234.53 163.51 234.53 153.96 233.81 153.55"/><polygon class="cls-17" points="338.25 153.55 338.25 163.09 337.54 163.51 337.54 153.96 338.25 153.55"/><polygon class="cls-17" points="286.03 183.7 286.03 183.7 284.8 182.99 284.8 192.54 286.03 193.25 286.03 193.25 286.03 193.25 286.03 193.25 286.03 193.25 287.26 192.54 287.26 182.99 286.03 183.7"/><polygon class="cls-6" points="286.03 167.6 233.81 137.44 286.03 107.29 338.25 137.44 286.03 167.6"/><polygon class="cls-6" points="286.03 158.92 233.81 128.77 286.03 98.62 338.25 128.77 286.03 158.92"/><polygon class="cls-18" points="286.03 152.05 245.71 128.77 286.03 105.49 326.35 128.77 286.03 152.05"/><polygon class="cls-19" points="338.25 128.77 338.25 137.44 286.03 167.6 286.03 158.92 338.25 128.77"/><polygon class="cls-6" points="233.81 128.77 233.81 137.44 286.03 167.6 286.03 158.92 233.81 128.77"/><polygon class="cls-20" points="233.81 128.77 233.81 137.44 286.03 167.6 286.03 158.92 233.81 128.77"/><polygon class="cls-6" points="286.03 149.38 233.81 119.22 286.03 89.07 338.25 119.22 286.03 149.38"/><polygon class="cls-6" points="286.03 140.7 233.81 110.55 286.03 80.4 338.25 110.55 286.03 140.7"/><polygon class="cls-21" points="286.03 140.7 233.81 110.55 286.03 80.4 338.25 110.55 286.03 140.7"/><polygon class="cls-11" points="286.03 121.71 266.69 110.55 286.03 99.39 305.37 110.55 286.03 121.71"/><polygon class="cls-11" points="286.03 106.97 298.81 114.34 305.37 110.55 286.03 99.39 266.69 110.55 273.26 114.34 286.03 106.97"/><polygon class="cls-12" points="286.03 106.97 298.81 114.34 305.37 110.55 286.03 99.39 266.69 110.55 273.26 114.34 286.03 106.97"/><polygon class="cls-22" points="338.25 110.55 338.25 119.22 286.03 149.38 286.03 140.7 338.25 110.55"/><polygon class="cls-6" points="233.81 110.55 233.81 119.22 286.03 149.38 286.03 140.7 233.81 110.55"/><polygon class="cls-23" points="233.81 110.55 233.81 119.22 286.03 149.38 286.03 140.7 233.81 110.55"/><polygon class="cls-11" points="286.03 149.38 286.03 158.92 233.81 128.77 233.81 119.22 286.03 149.38"/><polygon class="cls-11" points="245.71 126.1 245.71 128.77 286.03 152.05 326.35 128.77 326.35 126.1 286.03 149.38 245.71 126.1"/><polygon class="cls-11" points="286.03 149.38 286.03 152.05 245.71 128.77 245.71 126.1 286.03 149.38"/><polygon class="cls-15" points="233.81 119.22 233.81 128.77 286.03 158.92 338.25 128.77 338.25 119.22 286.03 149.38 233.81 119.22"/><polygon class="cls-24" points="235.04 110.55 286.65 80.75 286.03 80.4 233.81 110.55 286.03 140.7 286.65 140.35 235.04 110.55"/><polygon class="cls-17" points="233.81 119.22 233.81 128.77 234.53 129.19 234.53 119.64 233.81 119.22"/><polygon class="cls-17" points="338.25 119.22 338.25 128.77 337.54 129.19 337.54 119.64 338.25 119.22"/><polygon class="cls-17" points="286.03 149.38 286.03 149.38 284.8 148.66 284.8 158.22 286.03 158.92 286.03 158.92 286.03 158.92 286.03 158.92 286.03 158.92 287.26 158.22 287.26 148.66 286.03 149.38"/><polygon class="cls-6" points="286.03 133.27 233.81 103.12 286.03 72.97 338.25 103.12 286.03 133.27"/><polygon class="cls-6" points="286.03 124.6 233.81 94.44 286.03 64.29 338.25 94.45 286.03 124.6"/><polygon class="cls-25" points="286.03 117.72 245.71 94.45 286.03 71.17 326.35 94.45 286.03 117.72"/><polygon class="cls-26" points="338.25 94.45 338.25 103.12 286.03 133.27 286.03 124.6 338.25 94.45"/><polygon class="cls-6" points="233.81 94.44 233.81 103.12 286.03 133.27 286.03 124.6 233.81 94.44"/><polygon class="cls-27" points="233.81 94.44 233.81 103.12 286.03 133.27 286.03 124.6 233.81 94.44"/><polygon class="cls-6" points="286.03 115.05 233.81 84.9 286.03 54.75 338.25 84.9 286.03 115.05"/><polygon class="cls-6" points="286.03 106.38 233.81 76.23 286.03 46.07 338.25 76.23 286.03 106.38"/><polygon class="cls-28" points="286.03 106.38 233.81 76.23 286.03 46.07 338.25 76.23 286.03 106.38"/><polygon class="cls-11" points="286.03 87.39 266.69 76.23 286.03 65.06 305.37 76.23 286.03 87.39"/><polygon class="cls-11" points="286.03 72.64 298.81 80.02 305.37 76.23 286.03 65.06 266.69 76.23 273.26 80.01 286.03 72.64"/><polygon class="cls-12" points="286.03 72.64 298.81 80.02 305.37 76.23 286.03 65.06 266.69 76.23 273.26 80.01 286.03 72.64"/><polygon class="cls-29" points="338.25 76.23 338.25 84.9 286.03 115.05 286.03 106.38 338.25 76.23"/><polygon class="cls-6" points="233.81 76.23 233.81 84.9 286.03 115.05 286.03 106.38 233.81 76.23"/><polygon class="cls-30" points="233.81 76.23 233.81 84.9 286.03 115.05 286.03 106.38 233.81 76.23"/><polygon class="cls-11" points="286.03 115.05 286.03 124.6 233.81 94.44 233.81 84.9 286.03 115.05"/><polygon class="cls-11" points="245.71 91.77 245.71 94.45 286.03 117.72 326.35 94.45 326.35 91.77 286.03 115.05 245.71 91.77"/><polygon class="cls-11" points="286.03 115.05 286.03 117.72 245.71 94.45 245.71 91.77 286.03 115.05"/><polygon class="cls-15" points="233.81 84.9 233.81 94.44 286.03 124.6 338.25 94.45 338.25 84.9 286.03 115.05 233.81 84.9"/><polygon class="cls-31" points="235.04 76.23 286.65 46.43 286.03 46.07 233.81 76.23 286.03 106.38 286.65 106.02 235.04 76.23"/><polygon class="cls-17" points="233.81 84.9 233.81 94.44 234.53 94.86 234.53 85.31 233.81 84.9"/><polygon class="cls-17" points="338.25 84.9 338.25 94.44 337.54 94.86 337.54 85.31 338.25 84.9"/><polygon class="cls-17" points="286.03 115.05 286.03 115.05 284.8 114.34 284.8 123.89 286.03 124.6 286.03 124.6 286.03 124.6 286.03 124.6 286.03 124.6 287.26 123.89 287.26 114.34 286.03 115.05"/><polygon class="cls-6" points="286.03 98.95 233.81 68.79 286.03 38.64 338.25 68.8 286.03 98.95"/><polygon class="cls-6" points="286.03 90.27 233.81 60.12 286.03 29.97 338.25 60.12 286.03 90.27"/><polygon class="cls-32" points="286.03 83.4 245.71 60.12 286.03 36.84 326.35 60.12 286.03 83.4"/><polygon class="cls-33" points="338.25 60.12 338.25 68.8 286.03 98.95 286.03 90.27 338.25 60.12"/><polygon class="cls-6" points="233.81 60.12 233.81 68.79 286.03 98.95 286.03 90.27 233.81 60.12"/><polygon class="cls-34" points="233.81 60.12 233.81 68.79 286.03 98.95 286.03 90.27 233.81 60.12"/><polygon class="cls-6" points="286.03 80.73 233.81 50.57 286.03 20.42 338.25 50.58 286.03 80.73"/><polygon class="cls-6" points="286.03 72.05 233.81 41.9 286.03 11.75 338.25 41.9 286.03 72.05"/><polygon class="cls-35" points="286.03 72.05 233.81 41.9 286.03 11.75 338.25 41.9 286.03 72.05"/><polygon class="cls-36" points="338.25 41.9 338.25 50.58 286.03 80.73 286.03 72.05 338.25 41.9"/><polygon class="cls-6" points="233.81 41.9 233.81 50.57 286.03 80.73 286.03 72.05 233.81 41.9"/><polygon class="cls-37" points="233.81 41.9 233.81 50.57 286.03 80.73 286.03 72.05 233.81 41.9"/><polygon class="cls-11" points="286.03 80.73 286.03 90.27 233.81 60.12 233.81 50.57 286.03 80.73"/><polygon class="cls-11" points="245.71 57.45 245.71 60.12 286.03 83.4 326.35 60.12 326.35 57.45 286.03 80.73 245.71 57.45"/><polygon class="cls-11" points="286.03 80.73 286.03 83.4 245.71 60.12 245.71 57.45 286.03 80.73"/><polygon class="cls-15" points="233.81 50.57 233.81 60.12 286.03 90.27 338.25 60.12 338.25 50.58 286.03 80.73 233.81 50.57"/><polygon class="cls-38" points="235.04 41.9 286.65 12.11 286.03 11.75 233.81 41.9 286.03 72.05 286.65 71.7 235.04 41.9"/><polygon class="cls-17" points="233.81 50.57 233.81 60.12 234.53 60.53 234.53 50.99 233.81 50.57"/><polygon class="cls-17" points="338.25 50.57 338.25 60.12 337.54 60.53 337.54 50.99 338.25 50.57"/><polygon class="cls-17" points="286.03 80.73 286.03 80.73 284.8 80.02 284.8 89.57 286.03 90.27 286.03 90.27 286.03 90.27 286.03 90.27 286.03 90.27 287.26 89.57 287.26 80.02 286.03 80.73"/><ellipse class="cls-39" cx="235.98" cy="310.54" rx="132.29" ry="76.38"/><path class="cls-5" d="M288.27,372.7l-39-22.53c-3-1.71-2.59-4.7.83-6.68l37.36-21.56c3.42-2,8.6-2.19,11.57-.48L338,344c3,1.72,2.6,4.71-.83,6.68l-37.35,21.57C296.41,374.2,291.24,374.41,288.27,372.7Z" transform="translate(-17.48 -38.19)"/><path class="cls-6" d="M345,324V316H324.19l-24.61-14.21c-3.28-1.89-9-1.66-12.81.53L263.09,316H242.26v8.52h0a3.71,3.71,0,0,0,2.2,3.43l43.21,24.95c3.29,1.9,9,1.66,12.81-.53l41.38-23.89C344.06,327.18,345.12,325.55,345,324Z" transform="translate(-17.48 -38.19)"/><path class="cls-40" d="M345,324V316H324.19l-24.61-14.21c-3.28-1.89-9-1.66-12.81.53L263.09,316H242.26v8.52h0a3.71,3.71,0,0,0,2.2,3.43l43.21,24.95c3.29,1.9,9,1.66,12.81-.53l41.38-23.89C344.06,327.18,345.12,325.55,345,324Z" transform="translate(-17.48 -38.19)"/><path class="cls-41" d="M299.58,301.75a11.65,11.65,0,0,0-5.95-1.27v53.65a14.75,14.75,0,0,0,6.87-1.8l41.38-23.89c2.18-1.26,3.24-2.89,3.12-4.42V316H324.19Z" transform="translate(-17.48 -38.19)"/><path class="cls-6" d="M287.69,344.34l-43.21-24.95c-3.28-1.9-2.87-5.21.92-7.4l41.37-23.88c3.79-2.19,9.53-2.43,12.81-.54l43.22,24.95c3.28,1.9,2.87,5.21-.92,7.4L300.5,343.81C296.71,346,291,346.23,287.69,344.34Z" transform="translate(-17.48 -38.19)"/><path class="cls-42" d="M287.69,344.34l-43.21-24.95c-3.28-1.9-2.87-5.21.92-7.4l41.37-23.88c3.79-2.19,9.53-2.43,12.81-.54l43.22,24.95c3.28,1.9,2.87,5.21-.92,7.4L300.5,343.81C296.71,346,291,346.23,287.69,344.34Z" transform="translate(-17.48 -38.19)"/><path class="cls-43" d="M288.85,338.82,254,318.72c-2.64-1.53-2.31-4.19.74-6l33.34-19.24c3.05-1.77,7.67-2,10.32-.43l34.82,20.1c2.64,1.53,2.31,4.2-.75,6L299.17,338.4C296.12,340.16,291.49,340.35,288.85,338.82Z" transform="translate(-17.48 -38.19)"/><path class="cls-12" d="M254.77,315.37l33.34-19.25c3.05-1.76,7.67-1.95,10.32-.42l34.82,20.1a3.83,3.83,0,0,1,1.41,1.31c.77-1.41.33-2.91-1.41-3.92l-34.82-20.1c-2.65-1.53-7.27-1.34-10.32.43l-33.34,19.24c-2.3,1.33-3.05,3.17-2.16,4.65A5.56,5.56,0,0,1,254.77,315.37Z" transform="translate(-17.48 -38.19)"/><path class="cls-44" d="M289.14,344.34l-43.21-24.95c-3.28-1.9-4.07-4.68.92-7.4l41.37-23.88a14.62,14.62,0,0,1,6.48-1.79,15,15,0,0,0-7.93,1.79L245.4,312c-3.79,2.19-4.2,5.5-.92,7.4l43.21,24.95A11.92,11.92,0,0,0,294,345.6,11.07,11.07,0,0,1,289.14,344.34Z" transform="translate(-17.48 -38.19)"/><path class="cls-45" d="M341.88,323.52,300.5,347.41c-3.79,2.19-9.52,2.43-12.81.53L244.48,323a3.71,3.71,0,0,1-2.2-3.43h0v1.77h0a3.71,3.71,0,0,0,2.2,3.43l43.21,24.95c3.29,1.89,9,1.66,12.81-.53l41.38-23.89c2.18-1.26,3.24-2.9,3.12-4.42V319.1C345.12,320.62,344.06,322.26,341.88,323.52Z" transform="translate(-17.48 -38.19)"/><path class="cls-46" d="M334.37,321.17c.48.27.48.71,0,1a1.89,1.89,0,0,1-1.7,0c-.48-.28-.48-.72,0-1A1.89,1.89,0,0,1,334.37,321.17Z" transform="translate(-17.48 -38.19)"/><path class="cls-46" d="M337,319.64c.48.27.48.71,0,1a1.89,1.89,0,0,1-1.7,0c-.48-.27-.48-.71,0-1A1.83,1.83,0,0,1,337,319.64Z" transform="translate(-17.48 -38.19)"/><path class="cls-46" d="M339.69,318.1c.48.27.48.71,0,1a1.89,1.89,0,0,1-1.7,0c-.48-.28-.48-.72,0-1A1.89,1.89,0,0,1,339.69,318.1Z" transform="translate(-17.48 -38.19)"/><path class="cls-47" d="M289.88,334l-27.31-15.76c-2.08-1.2-1.82-3.29.58-4.68l26.15-15.09c2.4-1.39,6-1.54,8.1-.34l27.31,15.77c2.07,1.2,1.81,3.29-.58,4.67L298,333.62C295.58,335,292,335.15,289.88,334Z" transform="translate(-17.48 -38.19)"/><path class="cls-15" d="M277.83,293.27l-35.57.15V316h0a3.71,3.71,0,0,0,2.2,3.43l43.21,24.95a11.64,11.64,0,0,0,5.94,1.26V289h-8.36Z" transform="translate(-17.48 -38.19)"/><path class="cls-15" d="M345,316a3.53,3.53,0,0,0,0-.46V293l-35.8.16-9.62-5.56c-3.28-1.89-9-1.65-12.81.54l-8.94,5.16-35.57.15V316h0a3.71,3.71,0,0,0,2.2,3.43l43.21,24.95c3.29,1.89,9,1.66,12.81-.53l41.38-23.89c2-1.14,3-2.58,3.12-4Z" transform="translate(-17.48 -38.19)"/><path class="cls-6" d="M345,293V284.9H324.19l-24.61-14.21c-3.28-1.89-9-1.65-12.81.54L263.09,284.9H242.26v8.52h0a3.73,3.73,0,0,0,2.2,3.44l43.21,24.95c3.29,1.89,9,1.65,12.81-.54l41.38-23.88C344.06,296.12,345.12,294.49,345,293Z" transform="translate(-17.48 -38.19)"/><path class="cls-48" d="M345,293V284.9H324.19l-24.61-14.21c-3.28-1.89-9-1.65-12.81.54L263.09,284.9H242.26v8.52h0a3.73,3.73,0,0,0,2.2,3.44l43.21,24.95c3.29,1.89,9,1.65,12.81-.54l41.38-23.88C344.06,296.12,345.12,294.49,345,293Z" transform="translate(-17.48 -38.19)"/><path class="cls-49" d="M299.58,270.69a11.65,11.65,0,0,0-5.95-1.27v53.66a14.76,14.76,0,0,0,6.87-1.81l41.38-23.88c2.18-1.27,3.24-2.9,3.12-4.42V284.9H324.19Z" transform="translate(-17.48 -38.19)"/><path class="cls-6" d="M287.69,313.28l-43.21-24.95c-3.28-1.89-2.87-5.21.92-7.39l41.37-23.89c3.79-2.19,9.53-2.43,12.81-.53l43.22,25c3.28,1.89,2.87,5.2-.92,7.39L300.5,312.75C296.71,314.94,291,315.18,287.69,313.28Z" transform="translate(-17.48 -38.19)"/><path class="cls-50" d="M287.69,313.28l-43.21-24.95c-3.28-1.89-2.87-5.21.92-7.39l41.37-23.89c3.79-2.19,9.53-2.43,12.81-.53l43.22,25c3.28,1.89,2.87,5.2-.92,7.39L300.5,312.75C296.71,314.94,291,315.18,287.69,313.28Z" transform="translate(-17.48 -38.19)"/><path class="cls-51" d="M289.14,313.28l-43.21-24.95c-3.28-1.89-4.07-4.68.92-7.39l41.37-23.89a14.62,14.62,0,0,1,6.48-1.79,15,15,0,0,0-7.93,1.79L245.4,280.94c-3.79,2.18-4.2,5.5-.92,7.39l43.21,24.95a11.82,11.82,0,0,0,6.33,1.26A10.8,10.8,0,0,1,289.14,313.28Z" transform="translate(-17.48 -38.19)"/><path class="cls-52" d="M341.88,292.47,300.5,316.35c-3.79,2.19-9.52,2.43-12.81.53l-43.21-24.94a3.73,3.73,0,0,1-2.2-3.44h0v1.77h0a3.71,3.71,0,0,0,2.2,3.43l43.21,24.95c3.29,1.9,9,1.66,12.81-.53l41.38-23.89c2.18-1.26,3.24-2.89,3.12-4.42v-1.76C345.12,289.57,344.06,291.2,341.88,292.47Z" transform="translate(-17.48 -38.19)"/><path class="cls-53" d="M290.2,286.71a1,1,0,0,1,0,1.87,3.58,3.58,0,0,1-3.25,0,1,1,0,0,1,0-1.87A3.58,3.58,0,0,1,290.2,286.71Z" transform="translate(-17.48 -38.19)"/><path class="cls-54" d="M295.26,283.78a1,1,0,0,1,0,1.88,3.58,3.58,0,0,1-3.25,0,1,1,0,0,1,0-1.88A3.64,3.64,0,0,1,295.26,283.78Z" transform="translate(-17.48 -38.19)"/><path class="cls-43" d="M300.32,280.86a1,1,0,0,1,0,1.88,3.58,3.58,0,0,1-3.25,0,1,1,0,0,1,0-1.88A3.58,3.58,0,0,1,300.32,280.86Z" transform="translate(-17.48 -38.19)"/><path class="cls-47" d="M293.36,307.15a8.71,8.71,0,0,1-4.28-1l-31.95-18.45a3.13,3.13,0,0,1-1.8-2.66c0-1.23.9-2.46,2.48-3.37L288.4,264c2.89-1.66,7.28-1.84,9.8-.39l31.95,18.45a3.13,3.13,0,0,1,1.8,2.66c0,1.23-.9,2.46-2.48,3.37l-30.59,17.67A11.46,11.46,0,0,1,293.36,307.15Zm-3.95-1.55c2.33,1.35,6.43,1.18,9.14-.39l30.59-17.66c1.37-.79,2.16-1.82,2.16-2.81a2.52,2.52,0,0,0-1.48-2.1L297.87,264.2c-2.33-1.35-6.44-1.18-9.15.39l-30.59,17.66c-1.37.79-2.15,1.82-2.15,2.81a2.53,2.53,0,0,0,1.47,2.1Z" transform="translate(-17.48 -38.19)"/><ellipse class="cls-55" cx="132.58" cy="151.32" rx="132.29" ry="76.38"/><path class="cls-5" d="M184.87,213.48l-39-22.53c-3-1.71-2.6-4.7.83-6.67L184,162.71c3.43-2,8.6-2.19,11.57-.48l39,22.53c3,1.71,2.59,4.7-.83,6.67L196.44,213C193,215,187.84,215.19,184.87,213.48Z" transform="translate(-17.48 -38.19)"/><path class="cls-6" d="M241.6,164.8v-8.06H220.79l-24.6-14.21c-3.29-1.89-9-1.66-12.81.53l-23.69,13.68H138.87v8.52h0a3.73,3.73,0,0,0,2.2,3.43l43.22,24.95c3.28,1.9,9,1.66,12.81-.53l41.37-23.89C240.67,168,241.72,166.33,241.6,164.8Z" transform="translate(-17.48 -38.19)"/><path class="cls-56" d="M241.6,164.8v-8.06H220.79l-24.6-14.21c-3.29-1.89-9-1.66-12.81.53l-23.69,13.68H138.87v8.52h0a3.73,3.73,0,0,0,2.2,3.43l43.22,24.95c3.28,1.9,9,1.66,12.81-.53l41.37-23.89C240.67,168,241.72,166.33,241.6,164.8Z" transform="translate(-17.48 -38.19)"/><path class="cls-57" d="M196.19,142.53a11.68,11.68,0,0,0-5.95-1.27v53.65a14.79,14.79,0,0,0,6.87-1.8l41.37-23.89c2.19-1.26,3.24-2.89,3.12-4.42v-8.06H220.79Z" transform="translate(-17.48 -38.19)"/><path class="cls-6" d="M184.3,185.12l-43.22-25c-3.28-1.9-2.87-5.21.92-7.4l41.38-23.88c3.79-2.19,9.52-2.43,12.81-.54l43.21,25c3.28,1.9,2.87,5.21-.92,7.4l-41.37,23.89C193.32,186.78,187.58,187,184.3,185.12Z" transform="translate(-17.48 -38.19)"/><path class="cls-58" d="M184.3,185.12l-43.22-25c-3.28-1.9-2.87-5.21.92-7.4l41.38-23.88c3.79-2.19,9.52-2.43,12.81-.54l43.21,25c3.28,1.9,2.87,5.21-.92,7.4l-41.37,23.89C193.32,186.78,187.58,187,184.3,185.12Z" transform="translate(-17.48 -38.19)"/><path class="cls-43" d="M185.45,179.6l-34.82-20.1c-2.64-1.53-2.31-4.19.75-6l33.33-19.24c3-1.77,7.68-2,10.32-.43L229.85,154c2.65,1.53,2.31,4.2-.74,6l-33.34,19.25C192.72,180.94,188.1,181.13,185.45,179.6Z" transform="translate(-17.48 -38.19)"/><path class="cls-12" d="M151.38,156.15l33.33-19.25c3-1.76,7.68-2,10.32-.42l34.82,20.1a4,4,0,0,1,1.42,1.31c.76-1.41.32-2.91-1.42-3.92L195,133.87c-2.64-1.53-7.27-1.34-10.32.43l-33.33,19.24c-2.31,1.33-3.06,3.17-2.16,4.65A5.49,5.49,0,0,1,151.38,156.15Z" transform="translate(-17.48 -38.19)"/><path class="cls-59" d="M185.75,185.12l-43.22-25c-3.28-1.9-4.06-4.68.92-7.4l41.38-23.88a14.58,14.58,0,0,1,6.48-1.79,14.91,14.91,0,0,0-7.93,1.79L142,152.77c-3.79,2.19-4.2,5.5-.92,7.4l43.22,25a11.92,11.92,0,0,0,6.33,1.26A11,11,0,0,1,185.75,185.12Z" transform="translate(-17.48 -38.19)"/><path class="cls-60" d="M238.48,164.3l-41.37,23.89c-3.79,2.19-9.53,2.43-12.81.53l-43.22-24.95a3.73,3.73,0,0,1-2.2-3.43h0v1.77h0a3.73,3.73,0,0,0,2.2,3.43l43.22,25c3.28,1.89,9,1.66,12.81-.53l41.37-23.89c2.19-1.26,3.24-2.9,3.12-4.42v-1.77C241.72,161.41,240.67,163,238.48,164.3Z" transform="translate(-17.48 -38.19)"/><path class="cls-46" d="M231,162a.52.52,0,0,1,0,1,1.91,1.91,0,0,1-1.71,0,.52.52,0,0,1,0-1A1.91,1.91,0,0,1,231,162Z" transform="translate(-17.48 -38.19)"/><path class="cls-46" d="M233.64,160.42a.52.52,0,0,1,0,1,1.91,1.91,0,0,1-1.71,0,.52.52,0,0,1,0-1A1.85,1.85,0,0,1,233.64,160.42Z" transform="translate(-17.48 -38.19)"/><path class="cls-46" d="M236.3,158.88c.47.27.47.71,0,1a1.91,1.91,0,0,1-1.71,0c-.47-.28-.47-.72,0-1A1.91,1.91,0,0,1,236.3,158.88Z" transform="translate(-17.48 -38.19)"/><path class="cls-47" d="M186.48,174.74,159.17,159c-2.07-1.2-1.81-3.29.58-4.68L185.9,139.2c2.4-1.39,6-1.54,8.1-.34l27.31,15.77c2.08,1.2,1.82,3.29-.58,4.67l-26.15,15.1C192.19,175.78,188.56,175.93,186.48,174.74Z" transform="translate(-17.48 -38.19)"/><path class="cls-15" d="M190.24,127.09a14.75,14.75,0,0,0-6.86,1.8l-8.94,5.16-35.57.15v22.54h0a3.73,3.73,0,0,0,2.2,3.43l43.22,25a11.61,11.61,0,0,0,5.94,1.26Z" transform="translate(-17.48 -38.19)"/><path class="cls-15" d="M241.6,156.74a3.53,3.53,0,0,0,0-.46V133.75l-35.8.16-9.61-5.56c-3.29-1.89-9-1.65-12.81.54l-8.94,5.16-35.57.15v22.54h0a3.73,3.73,0,0,0,2.2,3.43l43.22,25c3.28,1.89,9,1.66,12.81-.53l41.37-23.89c2-1.14,3-2.58,3.12-4Z" transform="translate(-17.48 -38.19)"/><path class="cls-6" d="M241.6,133.75v-8.07H220.79l-24.6-14.2c-3.29-1.9-9-1.66-12.81.53l-23.69,13.67H138.87v8.52h0a3.73,3.73,0,0,0,2.2,3.44l43.22,25c3.28,1.89,9,1.65,12.81-.53l41.37-23.89C240.67,136.91,241.72,135.27,241.6,133.75Z" transform="translate(-17.48 -38.19)"/><path class="cls-61" d="M241.6,133.75v-8.07H220.79l-24.6-14.2c-3.29-1.9-9-1.66-12.81.53l-23.69,13.67H138.87v8.52h0a3.73,3.73,0,0,0,2.2,3.44l43.22,25c3.28,1.89,9,1.65,12.81-.53l41.37-23.89C240.67,136.91,241.72,135.27,241.6,133.75Z" transform="translate(-17.48 -38.19)"/><path class="cls-62" d="M196.19,111.48a11.47,11.47,0,0,0-5.95-1.27v53.65a14.91,14.91,0,0,0,6.87-1.8l41.37-23.89c2.19-1.26,3.24-2.9,3.12-4.42v-8.07H220.79Z" transform="translate(-17.48 -38.19)"/><path class="cls-6" d="M184.3,154.06l-43.22-24.95c-3.28-1.89-2.87-5.2.92-7.39l41.38-23.89c3.79-2.19,9.52-2.43,12.81-.53l43.21,25c3.28,1.89,2.87,5.21-.92,7.39l-41.37,23.89C193.32,155.72,187.58,156,184.3,154.06Z" transform="translate(-17.48 -38.19)"/><path class="cls-63" d="M184.3,154.06l-43.22-24.95c-3.28-1.89-2.87-5.2.92-7.39l41.38-23.89c3.79-2.19,9.52-2.43,12.81-.53l43.21,25c3.28,1.89,2.87,5.21-.92,7.39l-41.37,23.89C193.32,155.72,187.58,156,184.3,154.06Z" transform="translate(-17.48 -38.19)"/><path class="cls-64" d="M185.75,154.06l-43.22-24.95c-3.28-1.89-4.06-4.68.92-7.39l41.38-23.89A14.58,14.58,0,0,1,191.31,96a15,15,0,0,0-7.93,1.79L142,121.72c-3.79,2.19-4.2,5.5-.92,7.39l43.22,24.95a11.73,11.73,0,0,0,6.33,1.26A10.73,10.73,0,0,1,185.75,154.06Z" transform="translate(-17.48 -38.19)"/><path class="cls-65" d="M238.48,133.25l-41.37,23.88c-3.79,2.19-9.53,2.43-12.81.54l-43.22-24.95a3.74,3.74,0,0,1-2.2-3.44h0v1.77h0a3.73,3.73,0,0,0,2.2,3.43l43.22,25c3.28,1.9,9,1.66,12.81-.53L238.48,135c2.19-1.26,3.24-2.89,3.12-4.42v-1.76C241.72,130.35,240.67,132,238.48,133.25Z" transform="translate(-17.48 -38.19)"/><path class="cls-53" d="M186.81,127.49a1,1,0,0,1,0,1.87,3.58,3.58,0,0,1-3.25,0,1,1,0,0,1,0-1.87A3.58,3.58,0,0,1,186.81,127.49Z" transform="translate(-17.48 -38.19)"/><path class="cls-54" d="M191.87,124.56a1,1,0,0,1,0,1.88,3.58,3.58,0,0,1-3.25,0,1,1,0,0,1,0-1.88A3.64,3.64,0,0,1,191.87,124.56Z" transform="translate(-17.48 -38.19)"/><path class="cls-43" d="M196.93,121.64a1,1,0,0,1,0,1.88,3.58,3.58,0,0,1-3.25,0,1,1,0,0,1,0-1.88A3.58,3.58,0,0,1,196.93,121.64Z" transform="translate(-17.48 -38.19)"/><path class="cls-47" d="M190,147.93a8.76,8.76,0,0,1-4.28-1l-32-18.45a3.13,3.13,0,0,1-1.8-2.66c0-1.23.9-2.46,2.48-3.37L185,104.81c2.89-1.67,7.29-1.85,9.8-.4l31.95,18.45a3.14,3.14,0,0,1,1.81,2.66c0,1.23-.91,2.46-2.49,3.37l-30.59,17.67A11.32,11.32,0,0,1,190,147.93Zm.56-43.86a10.63,10.63,0,0,0-5.19,1.3L154.74,123c-1.37.79-2.16,1.82-2.16,2.81a2.52,2.52,0,0,0,1.48,2.1L186,146.38c2.33,1.35,6.44,1.17,9.15-.39l30.59-17.66c1.37-.79,2.15-1.82,2.15-2.81a2.53,2.53,0,0,0-1.47-2.1l-32-18.44A8,8,0,0,0,190.52,104.07Z" transform="translate(-17.48 -38.19)"/><polygon class="cls-5" points="463.78 317.35 411.98 287.44 463.78 257.53 515.59 287.44 463.78 317.35"/><polygon class="cls-6" points="463.78 305.22 411.56 275.07 463.78 244.92 516 275.07 463.78 305.22"/><polygon class="cls-6" points="463.78 296.55 411.56 266.4 463.78 236.25 516 266.4 463.78 296.55"/><polygon class="cls-66" points="463.78 289.68 423.46 266.4 463.78 243.12 504.1 266.4 463.78 289.68"/><polygon class="cls-67" points="516 266.4 516 275.07 463.78 305.22 463.78 296.55 516 266.4"/><polygon class="cls-6" points="411.56 266.4 411.56 275.07 463.78 305.22 463.78 296.55 411.56 266.4"/><polygon class="cls-68" points="411.56 266.4 411.56 275.07 463.78 305.22 463.78 296.55 411.56 266.4"/><polygon class="cls-6" points="463.78 287 411.56 256.85 463.78 226.7 516 256.85 463.78 287"/><polygon class="cls-6" points="463.78 278.33 411.56 248.18 463.78 218.03 516 248.18 463.78 278.33"/><polygon class="cls-69" points="463.78 278.33 411.56 248.18 463.78 218.03 516 248.18 463.78 278.33"/><polygon class="cls-11" points="463.78 259.34 444.44 248.18 463.78 237.01 483.12 248.18 463.78 259.34"/><polygon class="cls-11" points="463.78 244.59 476.55 251.97 483.12 248.18 463.78 237.01 444.44 248.18 451.01 251.97 463.78 244.59"/><polygon class="cls-12" points="463.78 244.59 476.55 251.97 483.12 248.18 463.78 237.01 444.44 248.18 451.01 251.97 463.78 244.59"/><polygon class="cls-70" points="516 248.18 516 256.85 463.78 287 463.78 278.33 516 248.18"/><polygon class="cls-6" points="411.56 248.18 411.56 256.85 463.78 287 463.78 278.33 411.56 248.18"/><polygon class="cls-71" points="411.56 248.18 411.56 256.85 463.78 287 463.78 278.33 411.56 248.18"/><polygon class="cls-11" points="463.78 287 463.78 296.55 411.56 266.4 411.56 256.85 463.78 287"/><polygon class="cls-11" points="423.46 263.72 423.46 266.4 463.78 289.68 504.1 266.4 504.1 263.72 463.78 287 423.46 263.72"/><polygon class="cls-11" points="463.78 287 463.78 289.68 423.46 266.4 423.46 263.72 463.78 287"/><polygon class="cls-15" points="411.56 256.85 411.56 266.4 463.78 296.55 516 266.4 516 256.85 463.78 287 411.56 256.85"/><polygon class="cls-72" points="412.79 248.18 464.4 218.38 463.78 218.03 411.56 248.18 463.78 278.33 464.4 277.97 412.79 248.18"/><polygon class="cls-17" points="411.56 256.85 411.56 266.4 412.27 266.81 412.27 257.26 411.56 256.85"/><polygon class="cls-17" points="516 256.85 516 266.4 515.29 266.81 515.29 257.26 516 256.85"/><polygon class="cls-17" points="463.78 287 463.78 287 462.55 286.29 462.55 295.85 463.78 296.55 463.78 296.55 463.78 296.55 463.78 296.55 463.78 296.55 465.01 295.85 465.01 286.29 463.78 287"/><polygon class="cls-6" points="463.78 270.9 411.56 240.75 463.78 210.59 516 240.75 463.78 270.9"/><polygon class="cls-6" points="463.78 262.22 411.56 232.07 463.78 201.92 516 232.07 463.78 262.22"/><polygon class="cls-73" points="463.78 255.35 423.46 232.07 463.78 208.79 504.1 232.07 463.78 255.35"/><polygon class="cls-74" points="516 232.07 516 240.75 463.78 270.9 463.78 262.22 516 232.07"/><polygon class="cls-6" points="411.56 232.07 411.56 240.75 463.78 270.9 463.78 262.22 411.56 232.07"/><polygon class="cls-75" points="411.56 232.07 411.56 240.75 463.78 270.9 463.78 262.22 411.56 232.07"/><polygon class="cls-6" points="463.78 252.68 411.56 222.53 463.78 192.37 516 222.53 463.78 252.68"/><polygon class="cls-6" points="463.78 244 411.56 213.85 463.78 183.7 516 213.85 463.78 244"/><polygon class="cls-76" points="463.78 244 411.56 213.85 463.78 183.7 516 213.85 463.78 244"/><polygon class="cls-11" points="463.78 225.02 444.44 213.85 463.78 202.69 483.12 213.85 463.78 225.02"/><polygon class="cls-11" points="463.78 210.27 476.55 217.64 483.12 213.85 463.78 202.69 444.44 213.85 451.01 217.64 463.78 210.27"/><polygon class="cls-12" points="463.78 210.27 476.55 217.64 483.12 213.85 463.78 202.69 444.44 213.85 451.01 217.64 463.78 210.27"/><polygon class="cls-77" points="516 213.85 516 222.53 463.78 252.68 463.78 244 516 213.85"/><polygon class="cls-6" points="411.56 213.85 411.56 222.53 463.78 252.68 463.78 244 411.56 213.85"/><polygon class="cls-78" points="411.56 213.85 411.56 222.53 463.78 252.68 463.78 244 411.56 213.85"/><polygon class="cls-11" points="463.78 252.68 463.78 262.22 411.56 232.07 411.56 222.53 463.78 252.68"/><polygon class="cls-11" points="423.46 229.4 423.46 232.07 463.78 255.35 504.1 232.07 504.1 229.4 463.78 252.68 423.46 229.4"/><polygon class="cls-11" points="463.78 252.68 463.78 255.35 423.46 232.07 423.46 229.4 463.78 252.68"/><polygon class="cls-15" points="411.56 222.53 411.56 232.07 463.78 262.22 516 232.07 516 222.53 463.78 252.68 411.56 222.53"/><polygon class="cls-79" points="412.79 213.85 464.4 184.06 463.78 183.7 411.56 213.85 463.78 244 464.4 243.65 412.79 213.85"/><polygon class="cls-17" points="411.56 222.53 411.56 232.07 412.27 232.49 412.27 222.94 411.56 222.53"/><polygon class="cls-17" points="516 222.53 516 232.07 515.29 232.49 515.29 222.94 516 222.53"/><polygon class="cls-17" points="463.78 252.68 463.78 252.68 462.55 251.97 462.55 261.52 463.78 262.22 463.78 262.22 463.78 262.22 463.78 262.22 463.78 262.22 465.01 261.52 465.01 251.97 463.78 252.68"/><polygon class="cls-6" points="463.78 236.57 411.56 206.42 463.78 176.27 516 206.42 463.78 236.57"/><polygon class="cls-6" points="463.78 227.9 411.56 197.75 463.78 167.6 516 197.75 463.78 227.9"/><polygon class="cls-80" points="463.78 221.03 423.46 197.75 463.78 174.47 504.1 197.75 463.78 221.03"/><polygon class="cls-81" points="516 197.75 516 206.42 463.78 236.57 463.78 227.9 516 197.75"/><polygon class="cls-6" points="411.56 197.75 411.56 206.42 463.78 236.57 463.78 227.9 411.56 197.75"/><polygon class="cls-82" points="411.56 197.75 411.56 206.42 463.78 236.57 463.78 227.9 411.56 197.75"/><polygon class="cls-6" points="463.78 218.35 411.56 188.2 463.78 158.05 516 188.2 463.78 218.35"/><polygon class="cls-6" points="463.78 209.68 411.56 179.53 463.78 149.38 516 179.53 463.78 209.68"/><polygon class="cls-83" points="463.78 209.68 411.56 179.53 463.78 149.38 516 179.53 463.78 209.68"/><polygon class="cls-11" points="463.78 190.69 444.44 179.53 463.78 168.36 483.12 179.53 463.78 190.69"/><polygon class="cls-11" points="463.78 175.94 476.55 183.32 483.12 179.53 463.78 168.36 444.44 179.53 451.01 183.32 463.78 175.94"/><polygon class="cls-12" points="463.78 175.94 476.55 183.32 483.12 179.53 463.78 168.36 444.44 179.53 451.01 183.32 463.78 175.94"/><polygon class="cls-84" points="516 179.53 516 188.2 463.78 218.35 463.78 209.68 516 179.53"/><polygon class="cls-6" points="411.56 179.53 411.56 188.2 463.78 218.35 463.78 209.68 411.56 179.53"/><polygon class="cls-85" points="411.56 179.53 411.56 188.2 463.78 218.35 463.78 209.68 411.56 179.53"/><polygon class="cls-11" points="463.78 218.35 463.78 227.9 411.56 197.75 411.56 188.2 463.78 218.35"/><polygon class="cls-11" points="423.46 195.07 423.46 197.75 463.78 221.03 504.1 197.75 504.1 195.07 463.78 218.35 423.46 195.07"/><polygon class="cls-11" points="463.78 218.35 463.78 221.03 423.46 197.75 423.46 195.07 463.78 218.35"/><polygon class="cls-15" points="411.56 188.2 411.56 197.75 463.78 227.9 516 197.75 516 188.2 463.78 218.35 411.56 188.2"/><polygon class="cls-86" points="412.79 179.53 464.4 149.73 463.78 149.38 411.56 179.53 463.78 209.68 464.4 209.32 412.79 179.53"/><polygon class="cls-17" points="411.56 188.2 411.56 197.75 412.27 198.16 412.27 188.62 411.56 188.2"/><polygon class="cls-17" points="516 188.2 516 197.75 515.29 198.16 515.29 188.62 516 188.2"/><polygon class="cls-17" points="463.78 218.35 463.78 218.35 462.55 217.64 462.55 227.2 463.78 227.9 463.78 227.9 463.78 227.9 463.78 227.9 463.78 227.9 465.01 227.2 465.01 217.64 463.78 218.35"/><polygon class="cls-6" points="463.78 202.25 411.56 172.1 463.78 141.94 516 172.1 463.78 202.25"/><polygon class="cls-6" points="463.78 193.57 411.56 163.42 463.78 133.27 516 163.42 463.78 193.57"/><polygon class="cls-87" points="463.78 186.7 423.46 163.42 463.78 140.14 504.1 163.42 463.78 186.7"/><polygon class="cls-88" points="516 163.42 516 172.1 463.78 202.25 463.78 193.57 516 163.42"/><polygon class="cls-6" points="411.56 163.42 411.56 172.1 463.78 202.25 463.78 193.57 411.56 163.42"/><polygon class="cls-89" points="411.56 163.42 411.56 172.1 463.78 202.25 463.78 193.57 411.56 163.42"/><polygon class="cls-6" points="463.78 184.03 411.56 153.88 463.78 123.72 516 153.88 463.78 184.03"/><polygon class="cls-6" points="463.78 175.35 411.56 145.2 463.78 115.05 516 145.2 463.78 175.35"/><polygon class="cls-90" points="463.78 175.35 411.56 145.2 463.78 115.05 516 145.2 463.78 175.35"/><polygon class="cls-91" points="516 145.2 516 153.88 463.78 184.03 463.78 175.35 516 145.2"/><polygon class="cls-6" points="411.56 145.2 411.56 153.88 463.78 184.03 463.78 175.35 411.56 145.2"/><polygon class="cls-92" points="411.56 145.2 411.56 153.88 463.78 184.03 463.78 175.35 411.56 145.2"/><polygon class="cls-11" points="463.78 184.03 463.78 193.57 411.56 163.42 411.56 153.88 463.78 184.03"/><polygon class="cls-11" points="423.46 160.75 423.46 163.42 463.78 186.7 504.1 163.42 504.1 160.75 463.78 184.03 423.46 160.75"/><polygon class="cls-11" points="463.78 184.03 463.78 186.7 423.46 163.42 423.46 160.75 463.78 184.03"/><polygon class="cls-15" points="411.56 153.88 411.56 163.42 463.78 193.57 516 163.42 516 153.88 463.78 184.03 411.56 153.88"/><polygon class="cls-93" points="412.79 145.2 464.4 115.41 463.78 115.05 411.56 145.2 463.78 175.35 464.4 175 412.79 145.2"/><polygon class="cls-17" points="411.56 153.88 411.56 163.42 412.27 163.84 412.27 154.29 411.56 153.88"/><polygon class="cls-17" points="516 153.88 516 163.42 515.29 163.84 515.29 154.29 516 153.88"/><polygon class="cls-17" points="463.78 184.03 463.78 184.03 462.55 183.32 462.55 192.87 463.78 193.57 463.78 193.57 463.78 193.57 463.78 193.57 463.78 193.57 465.01 192.87 465.01 183.32 463.78 184.03"/><polygon class="cls-15" points="411.56 145.2 411.56 275.07 463.78 305.22 463.78 175.35 411.56 145.2"/><path class="cls-94" d="M480.5,207.47a10.48,10.48,0,0,1-5.11-1.17l-59.21-34.19a3.62,3.62,0,0,1-2.09-3.05c0-1.43,1.06-2.86,2.92-3.93l57.55-33.23c3.46-2,8.72-2.21,11.73-.48l59.21,34.19a3.62,3.62,0,0,1,2.09,3c0,1.43-1.06,2.86-2.92,3.93l-57.55,33.23A13.63,13.63,0,0,1,480.5,207.47ZM475.57,206c2.91,1.67,8,1.46,11.37-.48l57.55-33.23c1.74-1,2.74-2.32,2.74-3.62a3.29,3.29,0,0,0-1.91-2.74l-59.21-34.18c-2.91-1.68-8-1.47-11.37.48l-57.55,33.22c-1.74,1-2.74,2.33-2.74,3.62a3.28,3.28,0,0,0,1.91,2.74Z" transform="translate(-17.48 -38.19)"/><ellipse class="cls-95" cx="448.27" cy="97.72" rx="48.96" ry="28.26"/><ellipse class="cls-96" cx="501.15" cy="149.14" rx="48.96" ry="28.26"/><ellipse class="cls-97" cx="403.64" cy="123.4" rx="37.64" ry="21.73"/><path class="cls-98" d="M473.2,136.93a7,7,0,1,1-7-7A7,7,0,0,1,473.2,136.93Z" transform="translate(-17.48 -38.19)"/><path class="cls-94" d="M468.18,136.93a2,2,0,1,1-2-2A2,2,0,0,1,468.18,136.93Z" transform="translate(-17.48 -38.19)"/><circle class="cls-99" cx="403.64" cy="124.81" r="7.02"/><path class="cls-94" d="M423.12,163a2,2,0,1,1-2-2A2,2,0,0,1,423.12,163Z" transform="translate(-17.48 -38.19)"/><circle class="cls-100" cx="496.73" cy="151.82" r="7.02"/><path class="cls-94" d="M516.21,190a2,2,0,1,1-2-2A2,2,0,0,1,516.21,190Z" transform="translate(-17.48 -38.19)"/><circle class="cls-101" cx="509.74" cy="144.15" r="7.02"/><path class="cls-94" d="M529.22,182.34a2,2,0,1,1-2-2A2,2,0,0,1,529.22,182.34Z" transform="translate(-17.48 -38.19)"/><path class="cls-102" d="M547.24,174.79a7,7,0,1,1-7-7A7,7,0,0,1,547.24,174.79Z" transform="translate(-17.48 -38.19)"/><path class="cls-94" d="M542.22,174.79a2,2,0,1,1-2-2A2,2,0,0,1,542.22,174.79Z" transform="translate(-17.48 -38.19)"/><path class="cls-94" d="M480.49,192.54a10.36,10.36,0,0,1-5.1-1.18l-59.21-34.18a3.63,3.63,0,0,1-2.09-3.06c0-1.42,1.06-2.85,2.92-3.92L474.56,117c3.46-2,8.72-2.21,11.73-.48l59.21,34.19a3.61,3.61,0,0,1,2.09,3c0,1.42-1.06,2.86-2.92,3.93l-57.55,33.22A13.54,13.54,0,0,1,480.49,192.54Zm-4.92-1.49c2.91,1.68,8,1.46,11.37-.48l57.55-33.23c1.74-1,2.74-2.32,2.74-3.61a3.28,3.28,0,0,0-1.91-2.74L486.11,116.8c-2.91-1.68-8-1.46-11.37.48l-57.55,33.23c-1.74,1-2.74,2.32-2.74,3.61a3.28,3.28,0,0,0,1.91,2.74Z" transform="translate(-17.48 -38.19)"/><ellipse class="cls-103" cx="448.27" cy="82.79" rx="48.96" ry="28.26"/><ellipse class="cls-104" cx="501.15" cy="134.21" rx="48.96" ry="28.26"/><ellipse class="cls-105" cx="403.64" cy="108.46" rx="37.64" ry="21.73"/><path class="cls-106" d="M473.2,122a7,7,0,1,1-7-7A7,7,0,0,1,473.2,122Z" transform="translate(-17.48 -38.19)"/><path class="cls-94" d="M468.18,122a2,2,0,1,1-2-2A2,2,0,0,1,468.18,122Z" transform="translate(-17.48 -38.19)"/><circle class="cls-107" cx="403.64" cy="109.87" r="7.02"/><path class="cls-94" d="M423.12,148.07a2,2,0,1,1-2-2A2,2,0,0,1,423.12,148.07Z" transform="translate(-17.48 -38.19)"/><circle class="cls-108" cx="496.73" cy="136.88" r="7.02"/><path class="cls-94" d="M516.21,175.07a2,2,0,1,1-2-2A2,2,0,0,1,516.21,175.07Z" transform="translate(-17.48 -38.19)"/><circle class="cls-109" cx="509.74" cy="129.22" r="7.02"/><path class="cls-94" d="M529.22,167.41a2,2,0,1,1-2-2A2,2,0,0,1,529.22,167.41Z" transform="translate(-17.48 -38.19)"/><path class="cls-110" d="M547.24,159.86a7,7,0,1,1-7-7A7,7,0,0,1,547.24,159.86Z" transform="translate(-17.48 -38.19)"/><path class="cls-94" d="M542.22,159.86a2,2,0,1,1-2-2A2,2,0,0,1,542.22,159.86Z" transform="translate(-17.48 -38.19)"/><path class="cls-94" d="M190.57,151.94a10.36,10.36,0,0,1-5.1-1.17l-59.21-34.19a3.61,3.61,0,0,1-2.09-3c0-1.42,1.06-2.86,2.92-3.93l57.55-33.22c3.46-2,8.72-2.22,11.73-.48l59.21,34.18a3.63,3.63,0,0,1,2.09,3.06c0,1.42-1.07,2.85-2.92,3.92L197.2,150.29A13.64,13.64,0,0,1,190.57,151.94Zm.69-76.86a13.15,13.15,0,0,0-6.44,1.61l-57.55,33.23c-1.74,1-2.74,2.32-2.74,3.61a3.28,3.28,0,0,0,1.91,2.74l59.21,34.19c2.9,1.68,8,1.46,11.37-.48l57.55-33.23c1.74-1,2.74-2.32,2.74-3.61a3.28,3.28,0,0,0-1.91-2.74L196.19,76.21A10.06,10.06,0,0,0,191.26,75.08Z" transform="translate(-17.48 -38.19)"/><ellipse class="cls-111" cx="158.35" cy="42.2" rx="48.96" ry="28.26"/><ellipse class="cls-112" cx="211.23" cy="93.62" rx="48.96" ry="28.26"/><ellipse class="cls-113" cx="113.72" cy="67.87" rx="37.64" ry="21.73"/><circle class="cls-114" cx="158.78" cy="43.21" r="7.02"/><path class="cls-94" d="M178.26,81.4a2,2,0,1,1-2-2A2,2,0,0,1,178.26,81.4Z" transform="translate(-17.48 -38.19)"/><circle class="cls-115" cx="113.72" cy="69.28" r="7.02"/><path class="cls-94" d="M133.2,107.47a2,2,0,1,1-2-2A2,2,0,0,1,133.2,107.47Z" transform="translate(-17.48 -38.19)"/><path class="cls-116" d="M231.3,134.48a7,7,0,1,1-7-7A7,7,0,0,1,231.3,134.48Z" transform="translate(-17.48 -38.19)"/><path class="cls-94" d="M226.29,134.48a2,2,0,1,1-2-2A2,2,0,0,1,226.29,134.48Z" transform="translate(-17.48 -38.19)"/><polygon class="cls-15" points="233.81 41.9 233.81 171.77 286.03 201.92 286.03 72.05 233.81 41.9"/></g></g></svg>